<svg width="103" height="103" viewBox="0 0 103 103" fill="none" xmlns="http://www.w3.org/2000/svg">
<path fill-rule="evenodd" clip-rule="evenodd" d="M51.5 103C79.9427 103 103 79.9427 103 51.5C103 23.0573 79.9427 0 51.5 0C23.0573 0 0 23.0573 0 51.5C0 79.9427 23.0573 103 51.5 103ZM63.7184 28.394C60.6613 28.2538 59.743 28.2248 52 28.2248C44.257 28.2248 43.3387 28.2538 40.2816 28.394C37.1182 28.539 33.8823 29.2423 31.5623 31.5623C29.2809 33.8436 28.5366 37.1496 28.394 40.2816C28.2538 43.3387 28.2248 44.257 28.2248 52C28.2248 59.743 28.2538 60.6613 28.394 63.7184C28.539 66.8698 29.2495 70.125 31.5623 72.4378C33.8315 74.7094 37.1617 75.4634 40.2816 75.606C43.3387 75.7462 44.257 75.7752 52 75.7752C59.743 75.7752 60.6613 75.7462 63.7184 75.606C66.8915 75.461 70.1129 74.7626 72.4378 72.4378C74.7263 70.1492 75.4634 66.8625 75.606 63.7184C75.7462 60.6613 75.7752 59.743 75.7752 52C75.7752 44.257 75.7462 43.3387 75.606 40.2816C75.461 37.1109 74.7626 33.8871 72.4378 31.5623C70.1347 29.2592 66.8794 28.539 63.7184 28.394ZM40.0423 23.174C43.1357 23.0338 44.1241 23 52 23C59.8759 23 60.8643 23.0338 63.9577 23.174C68.4261 23.377 72.8873 24.6216 76.1328 27.8672C79.3712 31.1055 80.6206 35.5594 80.826 40.0423C80.9662 43.1357 81 44.1241 81 52C81 59.8759 80.9662 60.8643 80.826 63.9577C80.6206 68.4382 79.3881 72.8776 76.1328 76.1328C72.8945 79.3712 68.4382 80.6206 63.9577 80.826C60.8643 80.9662 59.8759 81 52 81C44.1241 81 43.1357 80.9662 40.0423 80.826C35.5667 80.6206 31.1176 79.3833 27.8672 76.1328C24.6313 72.8993 23.3794 68.4358 23.174 63.9577C23.0338 60.8643 23 59.8759 23 52C23 44.1241 23.0338 43.1357 23.174 40.0423C23.3794 35.5618 24.6143 31.12 27.8672 27.8672C31.1079 24.6264 35.5594 23.3794 40.0423 23.174ZM52 37.1085C43.7761 37.1085 37.1085 43.7761 37.1085 52C37.1085 60.2239 43.7761 66.8915 52 66.8915C60.2239 66.8915 66.8915 60.2239 66.8915 52C66.8915 43.7761 60.2239 37.1085 52 37.1085ZM52 61.6667C46.6616 61.6667 42.3333 57.3384 42.3333 52C42.3333 46.6616 46.6616 42.3333 52 42.3333C57.3384 42.3333 61.6667 46.6616 61.6667 52C61.6667 57.3384 57.3384 61.6667 52 61.6667ZM70.9612 36.5188C70.9612 38.4408 69.4031 39.9988 67.4812 39.9988C65.5592 39.9988 64.0012 38.4408 64.0012 36.5188C64.0012 34.5969 65.5592 33.0388 67.4812 33.0388C69.4031 33.0388 70.9612 34.5969 70.9612 36.5188Z" fill="black"/>
</svg>
