<svg width="886" height="503" viewBox="0 0 886 503" fill="none" xmlns="http://www.w3.org/2000/svg">
<path d="M877.995 500.259C875.314 500.259 872.025 499.771 868.126 498.797C864.227 497.7 860.389 495.507 856.612 492.217C852.835 488.806 849.606 483.567 846.925 476.5L842.356 464.62H791.183L776.562 499.345H768.338L819.511 378.722H824.994L865.202 476.5C868.126 483.323 870.928 488.136 873.609 490.938C876.289 493.618 880.188 495.202 885.305 495.69V499.345C884.331 499.589 883.173 499.771 881.833 499.893C880.614 500.137 879.335 500.259 877.995 500.259ZM793.925 457.31H838.701L816.77 404.309L793.925 457.31Z" fill="black"/>
<path d="M719.965 501.173L677.565 400.105C674.641 393.282 671.838 388.53 669.158 385.85C666.477 383.048 662.578 381.403 657.461 380.915V377.26C657.948 377.26 658.923 377.199 660.385 377.077C661.725 376.956 662.822 376.895 663.675 376.895C666.721 376.895 670.132 377.382 673.91 378.357C677.687 379.331 681.464 381.464 685.241 384.753C689.14 388.043 692.551 393.16 695.475 400.105L726.728 473.758L766.935 378.722H775.708L723.255 501.173H719.965Z" fill="black"/>
<path d="M574.335 499.345V400.654C574.335 395.171 573.543 390.785 571.959 387.495C570.497 384.083 567.025 382.378 561.542 382.378H557.887V378.722H635.743C640.008 378.722 643.236 379.453 645.43 380.915C647.623 382.256 649.146 384.083 649.999 386.398C650.851 388.591 651.278 390.906 651.278 393.343V407.05H647.623C647.623 399.74 645.612 394.44 641.592 391.15C637.693 387.739 632.088 386.033 624.777 386.033H590.784V433.551H640.129V440.861H590.784V492.035H622.767C631.052 492.035 637.571 490.511 642.323 487.465C647.196 484.419 651.034 479.241 653.837 471.931L657.492 472.845L651.095 490.207C650.12 493.009 648.476 495.263 646.161 496.969C643.967 498.553 641.043 499.345 637.388 499.345H574.335Z" fill="black"/>
<path d="M495.254 501.173L452.854 400.105C449.93 393.282 447.127 388.53 444.447 385.85C441.766 383.048 437.867 381.403 432.75 380.915V377.26C433.237 377.26 434.212 377.199 435.674 377.077C437.014 376.956 438.111 376.895 438.964 376.895C442.01 376.895 445.421 377.382 449.199 378.357C452.976 379.331 456.753 381.464 460.53 384.753C464.429 388.043 467.84 393.16 470.764 400.105L502.017 473.758L542.224 378.722H550.997L498.544 501.173H495.254Z" fill="black"/>
<path d="M376.045 503C364.47 503 354.418 500.198 345.889 494.593C337.482 488.866 330.964 481.19 326.334 471.565C321.704 461.818 319.389 450.974 319.389 439.033C319.389 427.093 321.704 416.31 326.334 406.685C330.964 396.937 337.482 389.261 345.889 383.657C354.418 377.93 364.47 375.067 376.045 375.067C387.62 375.067 397.611 377.93 406.018 383.657C414.547 389.261 421.126 396.937 425.756 406.685C430.386 416.31 432.701 427.093 432.701 439.033C432.701 450.974 430.386 461.818 425.756 471.565C421.126 481.19 414.547 488.866 406.018 494.593C397.611 500.198 387.62 503 376.045 503ZM376.045 495.69C384.086 495.69 390.97 493.375 396.697 488.745C402.423 484.115 406.81 477.596 409.856 469.189C412.902 460.66 414.425 450.608 414.425 439.033C414.425 427.459 412.902 417.468 409.856 409.061C406.81 400.532 402.423 393.952 396.697 389.322C390.97 384.692 384.086 382.377 376.045 382.377C368.125 382.377 361.241 384.692 355.393 389.322C349.666 393.952 345.28 400.532 342.234 409.061C339.188 417.468 337.665 427.459 337.665 439.033C337.665 450.608 339.188 460.66 342.234 469.189C345.28 477.596 349.666 484.115 355.393 488.745C361.241 493.375 368.125 495.69 376.045 495.69Z" fill="black"/>
<path d="M236.652 499.345V400.654C236.652 395.171 235.86 390.785 234.276 387.495C232.814 384.083 229.341 382.378 223.858 382.378H220.203V378.722H236.652C240.916 378.722 244.206 379.271 246.521 380.367C248.958 381.464 250.663 383.596 251.638 386.764C252.613 389.932 253.1 394.562 253.1 400.654V492.035H317.981V499.345H236.652Z" fill="black"/>
<path d="M153.482 503C141.907 503 131.855 500.198 123.327 494.593C114.92 488.866 108.401 481.19 103.771 471.565C99.1412 461.818 96.8262 450.974 96.8262 439.033C96.8262 427.093 99.1412 416.31 103.771 406.685C108.401 396.937 114.92 389.261 123.327 383.657C131.855 377.93 141.907 375.067 153.482 375.067C165.057 375.067 175.048 377.93 183.455 383.657C191.984 389.261 198.563 396.937 203.193 406.685C207.823 416.31 210.138 427.093 210.138 439.033C210.138 450.974 207.823 461.818 203.193 471.565C198.563 481.19 191.984 488.866 183.455 494.593C175.048 500.198 165.057 503 153.482 503ZM153.482 495.69C161.524 495.69 168.408 493.375 174.134 488.745C179.861 484.115 184.247 477.596 187.293 469.189C190.339 460.66 191.862 450.608 191.862 439.033C191.862 427.459 190.339 417.468 187.293 409.061C184.247 400.532 179.861 393.952 174.134 389.322C168.408 384.692 161.524 382.377 153.482 382.377C145.563 382.377 138.679 384.692 132.83 389.322C127.104 393.952 122.717 400.532 119.671 409.061C116.625 417.468 115.102 427.459 115.102 439.033C115.102 450.608 116.625 460.66 119.671 469.189C122.717 477.596 127.104 484.115 132.83 488.745C138.679 493.375 145.563 495.69 153.482 495.69Z" fill="black"/>
<path d="M42.5075 502.452C37.6339 502.452 32.6993 501.903 27.7038 500.807C22.8302 499.832 18.3221 498.37 14.1795 496.421C10.1587 494.471 6.92994 492.156 4.49312 489.476C2.0563 486.673 0.837891 483.566 0.837891 480.155V460.599H4.1276C6.1989 472.905 10.2197 481.739 16.1899 487.1C22.2819 492.461 30.5062 495.141 40.8627 495.141C45.0053 495.141 48.9042 494.471 52.5594 493.131C56.2146 491.669 59.1388 489.537 61.332 486.734C63.647 483.932 64.8044 480.52 64.8044 476.5C64.8044 471.139 63.0987 466.569 59.6871 462.792C56.3974 459.015 51.4019 455.177 44.7007 451.278L22.221 437.937C14.4232 433.307 8.8794 428.616 5.58969 423.864C2.42182 419.112 0.837891 413.325 0.837891 406.502C0.837891 397.12 4.06668 389.627 10.5243 384.022C17.1037 378.296 25.6935 375.432 36.2936 375.432C40.8018 375.432 45.3708 375.92 50.0008 376.894C54.6307 377.869 58.8952 379.331 62.7941 381.281C66.693 383.108 69.7999 385.362 72.1149 388.043C74.5517 390.723 75.7701 393.83 75.7701 397.364V416.919H72.4804C70.4091 404.613 66.4493 395.841 60.6009 390.602C54.7526 385.362 46.6501 382.743 36.2936 382.743C32.7602 382.743 29.3487 383.535 26.059 385.119C22.7693 386.581 20.0888 388.713 18.0175 391.515C16.068 394.196 15.0933 397.425 15.0933 401.202C15.0933 406.441 16.7991 410.766 20.2106 414.178C23.6222 417.589 28.6786 421.245 35.3798 425.144L57.8595 438.485C65.6573 443.115 71.3839 447.623 75.0391 452.009C78.6943 456.274 80.5219 461.818 80.5219 468.641C80.5219 478.875 77.1104 487.1 70.2873 493.314C63.4642 499.406 54.2043 502.452 42.5075 502.452Z" fill="black"/>
<path d="M405.917 335.415C403.236 335.415 399.946 334.928 396.048 333.953C392.149 332.856 388.311 330.663 384.534 327.373C380.757 323.962 377.528 318.723 374.847 311.656L370.278 299.776H319.105L304.484 334.501H296.26L347.433 213.878H352.916L393.123 311.656C396.048 318.479 398.85 323.292 401.53 326.094C404.211 328.775 408.11 330.359 413.227 330.846V334.501C412.252 334.745 411.095 334.928 409.755 335.049C408.536 335.293 407.257 335.415 405.917 335.415ZM321.846 292.466H366.623L344.692 239.465L321.846 292.466Z" fill="black"/>
<path d="M274.199 336.329L195.612 238.551V334.501H188.302V235.81C188.302 230.327 187.144 225.941 184.829 222.651C182.514 219.239 178.189 217.534 171.853 217.534H170.025V213.878H181.905C187.875 213.878 192.749 214.853 196.526 216.803C200.425 218.752 203.775 221.433 206.578 224.844L270.544 304.345V213.878H277.855V336.329H274.199Z" fill="black"/>
<path d="M149.082 336.329L70.4948 238.551V334.501H63.1844V235.81C63.1844 230.327 62.0269 225.941 59.7119 222.651C57.3969 219.239 53.0716 217.534 46.7358 217.534H44.9082V213.878H56.7877C62.7579 213.878 67.6316 214.853 71.4086 216.803C75.3075 218.752 78.6582 221.433 81.4605 224.844L145.427 304.345V213.878H152.738V336.329H149.082Z" fill="black"/>
<path d="M23.681 334.501C19.4165 334.501 16.0659 333.953 13.6291 332.856C11.3141 331.76 9.66924 329.627 8.69451 326.46C7.71979 323.292 7.23242 318.662 7.23242 312.57V213.878H23.681V312.57C23.681 318.053 24.412 322.5 25.8741 325.911C27.458 329.201 30.9914 330.846 36.4743 330.846H40.1295V334.501H23.681Z" fill="black"/>
<path d="M561.466 286.664C563.754 286.93 565.793 287.216 567.844 287.409C588.515 289.379 608.188 285.499 626.977 277.179C637.822 272.367 647.861 273.252 657.567 279.712C667.141 286.082 674.257 294.835 680.456 304.32C692.523 322.714 701.362 342.623 708.386 363.398C708.647 364.175 709.023 364.915 709.708 366.54C712.433 356.222 718.066 348.912 726.25 343.513C734.309 338.201 743.262 335.249 752.922 333.534C751.037 327.036 747.142 321.995 742.145 317.149C769.47 312.575 784.322 294.892 792.528 270.171C789.879 272.425 787.368 274.867 784.581 276.933C759.945 294.924 734.008 295.951 707.473 281.744C699.593 277.465 692.233 272.288 685.542 266.314C668.434 251.143 650.23 237.945 628.137 230.166C628.764 229.485 629.177 228.986 629.638 228.531C640.866 217.491 645.104 203.553 646.065 188.326C647.038 172.932 644.12 158.016 640.337 143.18C630.523 104.792 628.791 66.23 638.414 27.5611C640.092 20.8177 642.51 14.2917 644.638 7.38952C637.999 9.04859 632.051 12.1786 626.308 15.7405C606.842 27.7984 592.501 44.6133 581.696 64.6186C572.57 81.4805 567.145 99.6262 562.946 118.281C560.722 128.161 557.807 137.873 554.223 147.344C544.718 172.395 526.831 188.091 500.53 194.176C491.295 196.288 482.187 198.922 473.251 202.064C465.628 204.762 459.576 210.031 455.192 216.924C449.583 225.742 449.374 235.029 453.506 244.453C454.517 246.768 454.788 248.742 453.904 251.245C450.409 261.141 449.455 271.76 451.129 282.127C451.327 283.411 451.706 284.692 451.928 285.68C456.983 281.152 461.632 276.36 466.898 272.399C475.838 265.491 487.016 262.134 498.287 262.972C498.782 262.974 499.269 262.856 499.707 262.627C500.144 262.399 500.52 262.066 500.8 261.659C481.357 258.922 466.489 267.455 453.241 281.538C453.021 278.412 452.722 275.889 452.684 273.367C452.568 265.299 453.934 257.28 456.714 249.709C457.125 248.599 457.121 247.376 456.702 246.267C449.407 231.126 453.15 217.422 467.05 208.027C475.121 202.571 484.348 200.395 493.585 198.2C503.235 195.904 512.811 193.382 521.685 188.802C538.708 180.017 549.589 165.707 556.215 148.274C560.238 137.41 563.511 126.282 566.011 114.968C571.875 89.374 581.161 65.471 597.492 44.6737C609.527 29.342 625.283 17.0351 640.651 11.0606C640.697 11.5435 640.674 12.0304 640.582 12.5065C629.972 42.9997 628.039 74.3376 631.238 106.219C632.843 122.27 636.678 137.858 640.439 153.483C643.787 167.49 645.2 181.702 642.899 196.051C640.965 208.102 636.471 218.913 627.378 227.474C626.829 228.079 626.11 228.503 625.315 228.692C624.521 228.881 623.687 228.825 622.924 228.531C612.707 225.583 602.354 223.691 591.669 225.158C589.074 225.423 586.541 226.119 584.176 227.216C582.504 228.08 580.517 230.002 580.402 231.569C580.286 233.136 582.027 235.399 583.568 236.364C589.441 240.045 596.099 240.838 602.876 240.359C610.522 239.849 617.887 237.284 624.194 232.935C625.137 232.289 626.97 232.318 628.149 232.731C644.243 238.315 658.559 247.034 671.748 257.635C680.753 264.899 689.322 272.798 698.842 279.301C715.322 290.552 733.586 296.021 753.756 292.737C764.21 291.085 774.15 287.08 782.827 281.025C784.112 280.131 785.437 279.279 786.721 278.421C786.91 278.66 787.165 278.89 787.1 278.927C779.364 295.414 767.922 307.875 749.901 313.178C749.284 313.361 748.688 313.495 748.089 313.66C743.098 315.041 738.726 314.848 733.983 311.783C726.12 306.736 717.103 304.602 707.694 304.782C705.382 304.826 702.171 304.615 701.682 307.477C701.193 310.339 704.342 311.195 706.502 311.94C715.962 315.335 725.91 317.164 735.955 317.354C737.759 317.448 739.488 318.115 740.889 319.259C744.855 322.56 747.911 326.822 749.766 331.639C732.849 335.747 717.89 342.391 709.602 359.327C707.315 353.561 705.269 348.062 702.98 342.681C695.335 324.503 686.654 306.886 673.866 291.677C670.313 287.439 666.347 283.566 662.025 280.116C650.552 270.996 638.316 269.488 624.561 275.625C604.649 284.506 583.637 287.71 561.895 284.149C559.684 283.776 557.627 282.772 555.972 281.257C546.497 272.628 535.977 265.811 523.635 262.14C520.946 261.358 518.154 260.989 515.356 261.044C512.492 261.096 511.511 263.083 513.287 265.318C514.442 266.626 515.784 267.756 517.27 268.67C528.761 276.557 541.629 282.211 555.203 285.339M565.811 413.985C566.015 413.711 566.199 413.423 566.362 413.123ZM622.625 230.733C613.599 238.545 596.007 240.529 585.758 235.019C584.452 234.324 583.591 232.771 582.524 231.612C583.763 230.599 584.842 229.085 586.256 228.653C598.515 224.937 610.433 227.584 622.625 230.733ZM515.216 263.61C530.295 264.665 542.059 272.422 552.9 282.053C538.969 278.712 526.295 272.799 515.216 263.61ZM704.291 307.898C715.253 306.221 725.12 309.139 734.314 314.787C723.885 314.381 713.704 312.861 704.302 307.892L704.291 307.898ZM565.802 414.019L566.364 413.151Z" fill="black"/>
<path d="M561.466 286.664C563.754 286.93 565.793 287.216 567.844 287.409C588.515 289.379 608.188 285.499 626.977 277.179C637.822 272.367 647.861 273.252 657.567 279.712C667.141 286.082 674.257 294.835 680.456 304.32C692.523 322.714 701.362 342.623 708.386 363.398C708.647 364.175 709.023 364.915 709.708 366.54C712.433 356.222 718.066 348.912 726.25 343.513C734.309 338.201 743.262 335.249 752.922 333.534C751.037 327.036 747.142 321.995 742.145 317.149C769.47 312.575 784.322 294.892 792.528 270.171C789.879 272.425 787.368 274.867 784.581 276.933C759.945 294.924 734.008 295.951 707.473 281.744C699.593 277.465 692.233 272.288 685.542 266.314C668.434 251.143 650.23 237.945 628.137 230.166C628.764 229.485 629.177 228.986 629.638 228.531C640.866 217.491 645.104 203.553 646.065 188.326C647.038 172.932 644.12 158.016 640.337 143.18C630.523 104.792 628.791 66.23 638.414 27.5611C640.092 20.8177 642.51 14.2917 644.638 7.38952C637.999 9.04859 632.051 12.1786 626.308 15.7405C606.842 27.7984 592.501 44.6133 581.696 64.6186C572.57 81.4805 567.145 99.6262 562.946 118.281C560.722 128.161 557.807 137.873 554.223 147.344C544.718 172.395 526.831 188.091 500.53 194.176C491.295 196.288 482.187 198.922 473.251 202.064C465.628 204.762 459.576 210.031 455.192 216.924C449.583 225.742 449.374 235.029 453.506 244.453C454.517 246.768 454.788 248.742 453.904 251.245C450.409 261.141 449.455 271.76 451.129 282.127C451.327 283.411 451.706 284.692 451.928 285.68C456.983 281.152 461.632 276.36 466.898 272.399C475.838 265.491 487.016 262.134 498.287 262.972C498.782 262.974 499.269 262.856 499.707 262.627C500.144 262.399 500.52 262.066 500.8 261.659C481.357 258.922 466.489 267.455 453.241 281.538C453.021 278.412 452.722 275.889 452.684 273.367C452.568 265.299 453.934 257.28 456.714 249.709C457.125 248.599 457.121 247.376 456.702 246.267C449.407 231.126 453.15 217.422 467.05 208.027C475.121 202.571 484.348 200.395 493.585 198.2C503.235 195.904 512.811 193.382 521.685 188.802C538.708 180.017 549.589 165.707 556.215 148.274C560.238 137.41 563.511 126.282 566.011 114.968C571.875 89.374 581.161 65.471 597.492 44.6737C609.527 29.342 625.283 17.0351 640.651 11.0606C640.697 11.5435 640.674 12.0304 640.582 12.5065C629.972 42.9997 628.039 74.3376 631.238 106.219C632.843 122.27 636.678 137.858 640.439 153.483C643.787 167.49 645.2 181.702 642.899 196.051C640.965 208.102 636.471 218.913 627.378 227.474C626.829 228.079 626.11 228.503 625.315 228.692C624.521 228.881 623.687 228.825 622.924 228.531C612.707 225.583 602.354 223.691 591.669 225.158C589.074 225.423 586.541 226.119 584.176 227.216C582.504 228.08 580.517 230.002 580.402 231.569C580.286 233.136 582.027 235.399 583.568 236.364C589.441 240.045 596.099 240.838 602.876 240.359C610.522 239.849 617.887 237.284 624.194 232.935C625.137 232.289 626.97 232.318 628.149 232.731C644.243 238.315 658.559 247.034 671.748 257.635C680.753 264.899 689.322 272.798 698.842 279.301C715.322 290.552 733.586 296.021 753.756 292.737C764.21 291.085 774.15 287.08 782.827 281.025C784.112 280.131 785.437 279.279 786.721 278.421C786.91 278.66 787.165 278.89 787.1 278.927C779.364 295.414 767.922 307.875 749.901 313.178C749.284 313.361 748.688 313.495 748.089 313.66C743.098 315.041 738.726 314.848 733.983 311.783C726.12 306.736 717.103 304.602 707.694 304.782C705.382 304.826 702.171 304.615 701.682 307.477C701.193 310.339 704.342 311.195 706.502 311.94C715.962 315.335 725.91 317.164 735.955 317.354C737.759 317.448 739.488 318.115 740.889 319.259C744.855 322.56 747.911 326.822 749.766 331.639C732.849 335.747 717.89 342.391 709.602 359.327C707.315 353.561 705.269 348.062 702.98 342.681C695.335 324.503 686.654 306.886 673.866 291.677C670.313 287.439 666.347 283.566 662.025 280.116C650.552 270.996 638.316 269.488 624.561 275.625C604.649 284.506 583.637 287.71 561.895 284.149C559.684 283.776 557.627 282.772 555.972 281.257C546.497 272.628 535.977 265.811 523.635 262.14C520.946 261.358 518.154 260.989 515.356 261.044C512.492 261.096 511.511 263.083 513.287 265.318C514.442 266.626 515.784 267.756 517.27 268.67C528.761 276.557 541.629 282.211 555.203 285.339M565.811 413.985C566.015 413.711 566.199 413.423 566.362 413.123M565.802 414.019L566.364 413.151M622.625 230.733C613.599 238.545 596.007 240.529 585.758 235.019C584.452 234.324 583.591 232.771 582.524 231.612C583.763 230.599 584.842 229.085 586.256 228.653C598.515 224.937 610.433 227.584 622.625 230.733ZM515.216 263.61C530.295 264.665 542.059 272.422 552.9 282.053C538.969 278.712 526.295 272.799 515.216 263.61ZM704.291 307.898C715.253 306.221 725.12 309.139 734.314 314.787C723.885 314.381 713.704 312.861 704.302 307.892L704.291 307.898Z" stroke="black" stroke-width="3"/>
<path d="M554.529 285.662L562.391 287.269" stroke="black" stroke-width="3"/>
<path d="M520.511 170.952C520.525 169.922 520.789 168.813 520.502 167.878C516.517 154.872 514.688 141.303 515.087 127.71C515.732 104.492 522.558 83.3716 536.774 64.8386C537.331 64.1114 537.958 63.4305 538.76 62.4752C543.204 69.5462 546.101 76.9957 548.269 84.7219C557.928 118.996 549.701 148.817 525.958 174.785C525.123 175.694 522.601 176.651 525.338 178.635C541.88 161.687 552.597 142.029 554.257 118.102C555.737 96.7422 550.167 77.083 539.371 58.6224C515.16 79.7671 504.799 138.599 519.346 170.9L520.511 170.952Z" fill="black" stroke="black" stroke-width="3"/>
</svg>
