<svg width="164" height="112" viewBox="0 0 164 112" fill="none" xmlns="http://www.w3.org/2000/svg">
<path d="M48.0934 66.7518C50.7585 75.1862 52.0721 83.8223 52.3364 92.6357L52.3364 92.6357C52.4259 95.6059 52.4036 98.5737 52.3807 101.617C52.3702 103.014 52.3596 104.426 52.3596 105.861V106.698L48.5702 66.6011M48.0934 66.7518L48.5702 66.6011M48.0934 66.7518C48.0934 66.7518 48.0934 66.7518 48.0934 66.7518L48.5702 66.6011M48.0934 66.7518C47.3719 64.4689 46.8745 62.0979 46.3755 59.7193C46.1908 58.839 46.0059 57.9576 45.8093 57.0793C45.9651 57.0117 46.1207 56.9437 46.276 56.8752C46.4847 57.8029 46.6786 58.7273 46.8713 59.6464C47.3675 62.0122 47.8563 64.3424 48.5702 66.6011M65.1189 57.9702C64.6262 57.9872 64.187 58.0511 63.8211 58.1812C63.4528 58.3123 63.1296 58.5216 62.9215 58.8456C62.4997 59.5024 62.7094 60.3446 63.1573 61.1952L63.1574 61.1955C63.8847 62.5739 64.7278 63.9022 65.5577 65.2099C65.8584 65.6837 66.1574 66.1548 66.4486 66.6246C66.4917 66.6944 66.5349 66.764 66.5779 66.8336C67.7933 68.7968 68.9578 70.6779 69.3311 72.8523L69.331 72.8523L69.3327 72.8612C69.5616 74.064 69.552 75.2999 69.3045 76.499C67.1805 85.446 63.5188 93.6602 57.5408 100.707L57.5404 100.707C56.7314 101.663 55.797 102.482 54.8317 103.328C54.5455 103.578 54.2566 103.831 53.9674 104.091C53.9692 103.215 53.9749 102.336 53.9805 101.456C53.9956 99.0922 54.0108 96.7191 53.9529 94.3531L53.9529 94.3528C53.7159 84.8502 52.5086 75.4916 49.5932 66.3576L49.5931 66.3574C48.9091 64.2163 48.4958 62.0079 48.0758 59.7643C47.888 58.7611 47.6989 57.7508 47.4837 56.7363L47.4835 56.7355C47.4613 56.6316 47.4466 56.5563 47.4401 56.4909C47.4338 56.4273 47.4382 56.3968 47.4412 56.3847L47.4413 56.3841C47.4426 56.3791 47.4432 56.3768 47.4509 56.3688C47.4629 56.3564 47.501 56.3235 47.5964 56.2843C48.8413 55.7734 50.0702 55.2472 51.2948 54.7229C53.4635 53.7943 55.6188 52.8716 57.8253 52.0494L57.8254 52.0494C61.0256 50.8565 64.0798 51.0627 66.7769 53.3268C68.4952 54.7706 69.3535 56.589 69.5229 58.8851C68.1095 58.0924 66.6191 57.918 65.1189 57.9702ZM65.1189 57.9702L65.1362 58.4699L65.1188 57.9702C65.1189 57.9702 65.1189 57.9702 65.1189 57.9702ZM47.241 54.7557C47.3536 54.7055 47.4652 54.6556 47.576 54.606C48.281 54.291 48.9547 53.9898 49.634 53.7181L47.241 54.7557ZM47.241 54.7557C47.1869 54.0079 47.1363 53.3098 47.0843 52.6C47.2563 52.5941 47.4235 52.5847 47.5806 52.563M47.5806 52.563C47.5805 52.563 47.5804 52.563 47.5803 52.563L47.512 52.0677L47.5806 52.563Z" fill="black" stroke="black"/>
<path d="M155.292 90.9828C154.906 90.9828 154.432 90.9126 153.87 90.7721C153.309 90.6141 152.756 90.2981 152.211 89.8241C151.667 89.3325 151.202 88.5776 150.816 87.5594L150.157 85.8477H142.784L140.677 90.8511H139.492L146.866 73.4709H147.656L153.449 87.5594C153.87 88.5425 154.274 89.236 154.66 89.6398C155.047 90.026 155.608 90.2542 156.346 90.3244V90.8511C156.205 90.8862 156.038 90.9126 155.845 90.9301C155.67 90.9652 155.485 90.9828 155.292 90.9828ZM143.179 84.7944H149.631L146.471 77.1576L143.179 84.7944Z" fill="black"/>
<path d="M127.783 91.1144L121.674 76.5519C121.253 75.5688 120.849 74.8841 120.463 74.4979C120.076 74.0941 119.515 73.8571 118.777 73.7869V73.2602C118.848 73.2602 118.988 73.2514 119.199 73.2339C119.392 73.2163 119.55 73.2075 119.673 73.2075C120.112 73.2075 120.603 73.2777 121.147 73.4182C121.692 73.5586 122.236 73.8659 122.78 74.3399C123.342 74.8139 123.833 75.5512 124.255 76.5519L128.758 87.1643L134.551 73.4709H135.815L128.257 91.1144H127.783Z" fill="black"/>
<path d="M102.059 90.8511V76.631C102.059 75.841 101.945 75.209 101.717 74.735C101.506 74.2434 101.006 73.9976 100.216 73.9976H99.6895V73.4709H110.908C111.522 73.4709 111.987 73.5763 112.303 73.7869C112.619 73.9801 112.839 74.2434 112.962 74.577C113.084 74.893 113.146 75.2265 113.146 75.5776V77.5527H112.619C112.619 76.4993 112.33 75.7356 111.75 75.2616C111.188 74.7701 110.381 74.5243 109.328 74.5243H104.429V81.371H111.54V82.4244H104.429V89.7978H109.038C110.232 89.7978 111.171 89.5783 111.856 89.1394C112.558 88.7005 113.111 87.9544 113.515 86.9011L114.041 87.0327L113.12 89.5344C112.979 89.9382 112.742 90.263 112.409 90.5088C112.093 90.737 111.671 90.8511 111.145 90.8511H102.059Z" fill="black"/>
<path d="M85.926 91.1144L79.8166 76.5519C79.3953 75.5688 78.9915 74.8841 78.6053 74.4979C78.219 74.0941 77.6573 73.8571 76.9199 73.7869V73.2602C76.9901 73.2602 77.1306 73.2514 77.3413 73.2339C77.5344 73.2163 77.6924 73.2075 77.8153 73.2075C78.2542 73.2075 78.7457 73.2777 79.2899 73.4182C79.8342 73.5586 80.3784 73.8659 80.9226 74.3399C81.4844 74.8139 81.976 75.5512 82.3973 76.5519L86.9004 87.1643L92.6937 73.4709H93.9578L86.4 91.1144H85.926Z" fill="black"/>
<path d="M147.388 62.9374C145.72 62.9374 144.272 62.5336 143.043 61.7261C141.832 60.901 140.892 59.7949 140.225 58.408C139.558 57.0036 139.225 55.4411 139.225 53.7207C139.225 52.0002 139.558 50.4465 140.225 49.0596C140.892 47.6552 141.832 46.5491 143.043 45.7416C144.272 44.9165 145.72 44.5039 147.388 44.5039C149.056 44.5039 150.495 44.9165 151.707 45.7416C152.936 46.5491 153.884 47.6552 154.551 49.0596C155.218 50.4465 155.551 52.0002 155.551 53.7207C155.551 55.4411 155.218 57.0036 154.551 58.408C153.884 59.7949 152.936 60.901 151.707 61.7261C150.495 62.5336 149.056 62.9374 147.388 62.9374ZM147.388 61.8841C148.547 61.8841 149.539 61.5505 150.364 60.8834C151.189 60.2163 151.821 59.277 152.26 58.0657C152.699 56.8368 152.918 55.3885 152.918 53.7207C152.918 52.0529 152.699 50.6133 152.26 49.402C151.821 48.1731 151.189 47.225 150.364 46.5579C149.539 45.8908 148.547 45.5572 147.388 45.5572C146.247 45.5572 145.255 45.8908 144.412 46.5579C143.587 47.225 142.955 48.1731 142.516 49.402C142.077 50.6133 141.858 52.0529 141.858 53.7207C141.858 55.3885 142.077 56.8368 142.516 58.0657C142.955 59.277 143.587 60.2163 144.412 60.8834C145.255 61.5505 146.247 61.8841 147.388 61.8841Z" fill="black"/>
<path d="M122.563 62.4107V48.1905C122.563 47.4005 122.449 46.7685 122.221 46.2945C122.01 45.803 121.51 45.5572 120.72 45.5572H120.193V45.0305H122.563C123.178 45.0305 123.652 45.1095 123.985 45.2675C124.337 45.4255 124.582 45.7327 124.723 46.1892C124.863 46.6456 124.933 47.3128 124.933 48.1905V61.3573H134.282V62.4107H122.563Z" fill="black"/>
<path d="M105.839 62.9374C104.171 62.9374 102.723 62.5336 101.494 61.7261C100.283 60.901 99.3436 59.7949 98.6765 58.408C98.0093 57.0036 97.6758 55.4411 97.6758 53.7207C97.6758 52.0002 98.0093 50.4465 98.6765 49.0596C99.3436 47.6552 100.283 46.5491 101.494 45.7416C102.723 44.9165 104.171 44.5039 105.839 44.5039C107.507 44.5039 108.947 44.9165 110.158 45.7416C111.387 46.5491 112.335 47.6552 113.002 49.0596C113.669 50.4465 114.003 52.0002 114.003 53.7207C114.003 55.4411 113.669 57.0036 113.002 58.408C112.335 59.7949 111.387 60.901 110.158 61.7261C108.947 62.5336 107.507 62.9374 105.839 62.9374ZM105.839 61.8841C106.998 61.8841 107.99 61.5505 108.815 60.8834C109.64 60.2163 110.272 59.277 110.711 58.0657C111.15 56.8368 111.369 55.3885 111.369 53.7207C111.369 52.0529 111.15 50.6133 110.711 49.402C110.272 48.1731 109.64 47.225 108.815 46.5579C107.99 45.8908 106.998 45.5572 105.839 45.5572C104.698 45.5572 103.706 45.8908 102.863 46.5579C102.038 47.225 101.406 48.1731 100.967 49.402C100.529 50.6133 100.309 52.0529 100.309 53.7207C100.309 55.3885 100.529 56.8368 100.967 58.0657C101.406 59.277 102.038 60.2163 102.863 60.8834C103.706 61.5505 104.698 61.8841 105.839 61.8841Z" fill="black"/>
<path d="M85.1095 62.8585C84.4073 62.8585 83.6963 62.7795 82.9765 62.6215C82.2743 62.481 81.6247 62.2704 81.0278 61.9895C80.4485 61.7086 79.9833 61.375 79.6321 60.9888C79.281 60.585 79.1055 60.1373 79.1055 59.6458V56.8281H79.5795C79.8779 58.6012 80.4573 59.874 81.3175 60.6465C82.1953 61.4189 83.3803 61.8051 84.8725 61.8051C85.4694 61.8051 86.0312 61.7086 86.5579 61.5155C87.0845 61.3048 87.5059 60.9976 87.8219 60.5938C88.1554 60.19 88.3222 59.6985 88.3222 59.1191C88.3222 58.3467 88.0764 57.6883 87.5849 57.1441C87.1109 56.5999 86.3911 56.0469 85.4255 55.4851L82.1865 53.5627C81.0629 52.8956 80.2641 52.2197 79.7901 51.535C79.3337 50.8504 79.1055 50.0165 79.1055 49.0334C79.1055 47.6816 79.5707 46.6019 80.5011 45.7943C81.4492 44.9692 82.6868 44.5566 84.2142 44.5566C84.8637 44.5566 85.5221 44.6269 86.1892 44.7673C86.8563 44.9078 87.4708 45.1184 88.0326 45.3993C88.5943 45.6627 89.042 45.9874 89.3756 46.3737C89.7267 46.7599 89.9022 47.2076 89.9022 47.7167V50.5344H89.4282C89.1298 48.7612 88.5592 47.4972 87.7166 46.7423C86.8739 45.9874 85.7064 45.61 84.2142 45.61C83.7051 45.61 83.2135 45.7241 82.7395 45.9523C82.2655 46.163 81.8793 46.4702 81.5808 46.874C81.2999 47.2602 81.1595 47.7255 81.1595 48.2697C81.1595 49.0246 81.4053 49.6478 81.8968 50.1394C82.3884 50.6309 83.117 51.1576 84.0825 51.7194L87.3215 53.6417C88.4451 54.3088 89.2702 54.9584 89.7969 55.5904C90.3236 56.2049 90.5869 57.0037 90.5869 57.9868C90.5869 59.4615 90.0954 60.6465 89.1122 61.5418C88.1291 62.4196 86.7949 62.8585 85.1095 62.8585Z" fill="black"/>
<path d="M151.693 34.1022C151.307 34.1022 150.832 34.0319 150.271 33.8915C149.709 33.7335 149.156 33.4175 148.612 32.9435C148.067 32.4519 147.602 31.697 147.216 30.6788L146.558 28.9671H139.184L137.078 33.9705H135.893L143.266 16.5903H144.056L149.849 30.6788C150.271 31.6619 150.675 32.3554 151.061 32.7592C151.447 33.1454 152.009 33.3736 152.746 33.4438V33.9705C152.606 34.0056 152.439 34.0319 152.246 34.0495C152.07 34.0846 151.886 34.1022 151.693 34.1022ZM139.579 27.9138H146.031L142.871 20.277L139.579 27.9138Z" fill="black"/>
<path d="M127.973 34.2338L116.65 20.1454V33.9705H115.596V19.7504C115.596 18.9604 115.429 18.3283 115.096 17.8543C114.762 17.3628 114.139 17.117 113.226 17.117H112.963V16.5903H114.675C115.535 16.5903 116.237 16.7308 116.781 17.0117C117.343 17.2926 117.826 17.6788 118.23 18.1703L127.446 29.6255V16.5903H128.5V34.2338H127.973Z" fill="black"/>
<path d="M105.205 34.2338L93.882 20.1454V33.9705H92.8287V19.7504C92.8287 18.9604 92.6619 18.3283 92.3283 17.8543C91.9948 17.3628 91.3715 17.117 90.4586 17.117H90.1953V16.5903H91.907C92.7672 16.5903 93.4695 16.7308 94.0137 17.0117C94.5755 17.2926 95.0582 17.6788 95.462 18.1703L104.679 29.6255V16.5903H105.732V34.2338H105.205Z" fill="black"/>
<path d="M82.3974 33.9705C81.7829 33.9705 81.3001 33.8915 80.949 33.7335C80.6155 33.5755 80.3785 33.2683 80.238 32.8118C80.0976 32.3554 80.0273 31.6883 80.0273 30.8105V16.5903H82.3974V30.8105C82.3974 31.6005 82.5027 32.2413 82.7134 32.7328C82.9416 33.2068 83.4507 33.4438 84.2407 33.4438H84.7674V33.9705H82.3974Z" fill="black"/>
</svg>
