<svg width="103" height="103" viewBox="0 0 103 103" fill="none" xmlns="http://www.w3.org/2000/svg">
<path fill-rule="evenodd" clip-rule="evenodd" d="M51.5 0C23.0591 0 0 23.0591 0 51.5C0 79.9409 23.0591 103 51.5 103C79.9409 103 103 79.9409 103 51.5C103 23.0591 79.9409 0 51.5 0ZM75.3703 35.0243C74.5977 43.1656 71.2417 62.9287 69.5379 72.0485C68.8169 75.911 67.392 77.2028 66.0187 77.3272C63.0274 77.6019 60.7571 75.3488 57.8603 73.4519C53.3283 70.482 50.7661 68.6323 46.3672 65.7312C41.2815 62.3794 44.5775 60.5382 47.4744 57.5298C48.234 56.7401 61.4095 44.7535 61.667 43.6677C61.697 43.5304 61.7313 43.024 61.4266 42.7579C61.1219 42.4918 60.6799 42.5819 60.3623 42.6549C59.9074 42.7579 52.6673 47.5431 38.6379 57.0105C36.5822 58.4225 34.7196 59.1091 33.0501 59.0748C31.2133 59.0362 27.677 58.0362 25.0462 57.1779C21.8231 56.1307 19.2567 55.5728 19.4799 53.796C19.5958 52.869 20.8704 51.9206 23.308 50.9507C38.3203 44.4102 48.3328 40.097 53.3411 38.0113C67.6453 32.063 70.6151 31.0288 72.5549 30.9944C74.984 30.9601 75.5677 32.9643 75.3703 35.0243Z" fill="white"/>
</svg>
