<svg width="103" height="103" viewBox="0 0 103 103" fill="none" xmlns="http://www.w3.org/2000/svg">
<path fill-rule="evenodd" clip-rule="evenodd" d="M51.5 103C79.9427 103 103 79.9427 103 51.5C103 23.0573 79.9427 0 51.5 0C23.0573 0 0 23.0573 0 51.5C0 79.9427 23.0573 103 51.5 103ZM52.1291 20C60.3467 20.0026 68.0605 23.2033 73.8627 29.0107C79.6623 34.8154 82.8553 42.537 82.8501 50.7442C82.8424 67.6857 69.0577 81.4678 52.1265 81.4678H52.1136C46.9728 81.4652 41.9198 80.1762 37.4325 77.7272L21.1472 82L25.5079 66.0815C22.8186 61.4212 21.403 56.1357 21.4056 50.721C21.4133 33.7795 35.1954 20 52.1291 20ZM52.1188 76.2779H52.1291C66.2031 76.2779 77.6576 64.8234 77.6654 50.7391C77.668 43.9165 75.0149 37.5021 70.1944 32.6738C65.3739 27.8482 58.9621 25.1873 52.142 25.1873C38.0577 25.1873 26.6006 36.6418 26.5955 50.721C26.5929 55.5441 27.9414 60.2432 30.4989 64.3093L31.106 65.2755L28.5252 74.6995L38.1895 72.1653L39.122 72.7181C43.0435 75.0457 47.536 76.2779 52.1188 76.2779ZM60.8892 54.6554C61.5945 54.9112 65.3687 56.7686 66.136 57.1535C66.2866 57.2291 66.4273 57.2971 66.5577 57.3602C67.0917 57.6185 67.4522 57.793 67.6059 58.0525C67.7996 58.3702 67.7996 59.9099 67.159 61.7027C66.5183 63.4956 63.4519 65.1334 61.9768 65.353C60.6541 65.5493 58.9801 65.632 57.1408 65.0482C56.0274 64.6942 54.5962 64.2215 52.7646 63.431C45.5636 60.322 40.6982 53.3391 39.7843 52.0275C39.7208 51.9365 39.6764 51.8728 39.6516 51.8396L39.6425 51.8274C39.2277 51.2727 36.518 47.6492 36.518 43.8984C36.518 40.3684 38.2512 38.5151 39.0514 37.6594C39.1074 37.5996 39.1588 37.5446 39.2047 37.4943C39.9074 36.7245 40.7392 36.5333 41.2507 36.5333C41.7648 36.5333 42.2763 36.5359 42.7232 36.5592C42.7787 36.5619 42.8363 36.5615 42.8959 36.5611C43.3443 36.558 43.9019 36.5541 44.4515 37.8767C44.6482 38.3506 44.9302 39.0377 45.2318 39.7727C45.9084 41.4215 46.6838 43.3111 46.8178 43.5755C47.0116 43.9604 47.1381 44.4099 46.8824 44.9214C46.8425 45.0008 46.8058 45.0755 46.7707 45.1468C46.5787 45.5374 46.4376 45.8244 46.11 46.2002C45.9813 46.3505 45.8485 46.5123 45.7158 46.6741C45.4518 46.996 45.1882 47.3174 44.9578 47.5461C44.5755 47.9284 44.175 48.3418 44.622 49.1116C45.0689 49.8814 46.6111 52.395 48.8922 54.4307C51.342 56.6171 53.4726 57.5412 54.5547 58.0106C54.7678 58.103 54.9402 58.1778 55.0664 58.2411C55.8336 58.626 56.2831 58.5614 56.73 58.0499C57.1796 57.5358 58.6469 55.805 59.161 55.0377C59.675 54.2705 60.1866 54.3997 60.8892 54.6554Z" fill="black"/>
</svg>
